<svg width="244" height="83" viewBox="0 0 244 83" fill="none" xmlns="http://www.w3.org/2000/svg">
<path d="M242.906 35.2295C242.28 40.7483 238.355 46.2244 231.688 51.4079C225.024 56.589 215.662 61.4424 204.264 65.7075C181.471 74.2365 150.602 80.3879 117.064 82.1294C83.5264 83.8709 53.6953 80.8715 32.5781 74.6226C22.0181 71.4977 13.653 67.5649 8.09207 63.0186C2.52852 58.4702 -0.192948 53.3392 0.432988 47.8204C1.05892 42.3015 4.98341 36.8255 11.6507 31.6419C18.3149 26.4609 27.6765 21.6075 39.0747 17.3424C61.868 8.81333 92.7369 2.66194 126.275 0.920427C159.812 -0.821085 189.643 2.17833 210.76 8.42723C221.32 11.5521 229.686 15.485 235.246 20.0312C240.81 24.5797 243.531 29.7106 242.906 35.2295Z" stroke="#E9E9DB" stroke-width="0.6"/>
</svg>
