<svg width="183" height="687" viewBox="0 0 183 687" fill="none" xmlns="http://www.w3.org/2000/svg">
<path d="M104.529 509.693L104.529 564.89L135.844 579.253L135.844 600.213L-1.18903 536.415L135.844 474.871L135.844 496.165L104.529 509.693ZM86.2414 517.626L42.4009 536.749L86.2414 556.79L86.2414 517.626Z" fill="#202217"/>
<path d="M-0.689879 649.849L116.304 649.849L116.304 609.762L135.641 609.762L135.641 670.422L-0.689878 670.422L-0.689879 649.849Z" fill="#202217"/>
<path d="M104.529 123.856L104.529 179.053L135.844 193.416L135.844 214.376L-1.18903 150.578L135.844 89.0339L135.844 110.328L104.529 123.856ZM86.2414 131.789L42.4009 150.912L86.2414 170.953L86.2414 131.789Z" fill="#202217"/>
<path d="M136.5 313.55L-0.5099 313.55L-0.509901 284.8C-0.509901 271.016 0.850732 260.131 3.572 252.144C6.23411 243.566 10.7597 235.787 17.1488 228.807C30.0452 214.668 46.994 207.598 67.995 207.598C89.0553 207.598 106.093 214.964 119.108 229.694C125.615 237.089 130.141 244.838 132.684 252.943C135.228 260.515 136.5 271.252 136.5 285.154L136.5 313.55ZM117.067 292.875L117.067 283.557C117.067 274.269 116.09 266.549 114.138 260.397C112.068 254.244 108.784 248.684 104.288 243.714C95.0007 233.539 82.9029 228.452 67.995 228.452C52.9689 228.452 40.7824 233.48 31.4354 243.537C23.0941 252.588 18.9235 265.928 18.9235 283.557L18.9235 292.875L117.067 292.875Z" fill="#202217"/>
<path d="M137 466.104L-0.483165 439.187L98.9023 395.291L-0.483169 349.823L137 325.639L137 345.433L59.8107 357.773L142.88 395.623L59.7278 432.395L137 446.144L137 466.104Z" fill="#202217"/>
</svg>
