<svg width="907" height="126" viewBox="0 0 907 126" fill="none" xmlns="http://www.w3.org/2000/svg">
<path d="M75.6887 78.0883L61.8878 38.7246L48.087 78.0883H75.6887ZM83.8437 101.456L39.932 101.456L32.8747 122H0.0977926L45.1073 3.75205L78.6684 3.75205L123.678 122H90.9009L83.8437 101.456ZM131.795 122L151.869 3.75205L182.293 3.75205L205.974 66.7967L229.498 3.75205L259.923 3.75205L279.997 122L249.416 122L239.222 53.9369L211.306 122H199.074L172.57 53.9369L162.376 122H131.795ZM366.747 29.7854L330.206 29.7854V49.5457L364.708 49.5457V75.5791H330.206V95.9666H366.747V122H299.468V3.75205L366.747 3.75205V29.7854ZM419.647 56.6029H425.45C431.514 56.6029 436.166 55.3483 439.407 52.8391C442.648 50.3298 444.269 46.7228 444.269 42.018C444.269 37.3131 442.648 33.7061 439.407 31.1969C436.166 28.6876 431.514 27.433 425.45 27.433H419.647V56.6029ZM487.24 122H448.974L419.647 76.52V122H388.909V3.75205L436.741 3.75205C443.328 3.75205 449.078 4.74529 453.992 6.73177C458.906 8.61371 462.931 11.2275 466.068 14.5731C469.309 17.9188 471.714 21.7872 473.282 26.1784C474.955 30.5696 475.791 35.2744 475.791 40.2929C475.791 49.2843 473.596 56.6029 469.204 62.2487C464.918 67.79 458.54 71.5538 450.071 73.5403L487.24 122ZM530.835 3.75205V122H500.097V3.75205L530.835 3.75205ZM640.695 43.2726C633.586 34.5948 624.803 30.2559 614.348 30.2559C609.748 30.2559 605.461 31.0923 601.488 32.7651C597.62 34.438 594.274 36.7381 591.451 39.6655C588.629 42.4884 586.381 45.8864 584.708 49.8593C583.14 53.8323 582.355 58.1189 582.355 62.7192C582.355 67.424 583.14 71.7629 584.708 75.7359C586.381 79.7088 588.629 83.1591 591.451 86.0865C594.379 89.0139 597.777 91.3141 601.645 92.9869C605.514 94.6597 609.696 95.4961 614.191 95.4961C624.019 95.4961 632.854 91.3141 640.695 82.9499V119.334L637.559 120.432C632.854 122.105 628.463 123.307 624.385 124.039C620.308 124.875 616.283 125.293 612.31 125.293C604.155 125.293 596.313 123.777 588.785 120.745C581.362 117.609 574.776 113.27 569.025 107.729C563.379 102.083 558.831 95.4439 555.381 87.8116C551.931 80.0748 550.206 71.6584 550.206 62.5624C550.206 53.4664 551.879 45.1545 555.224 37.6268C558.675 29.9945 563.223 23.46 568.868 18.0234C574.619 12.4821 581.258 8.19549 588.785 5.16349C596.313 2.02694 604.207 0.458671 612.466 0.458671C617.171 0.458671 621.771 0.981428 626.267 2.02694C630.867 2.96791 635.677 4.48391 640.695 6.57494V43.2726ZM727.197 78.0883L713.396 38.7246L699.595 78.0883H727.197ZM735.352 101.456H691.44L684.383 122H651.606L696.615 3.75205L730.176 3.75205L775.186 122H742.409L735.352 101.456ZM788.635 122V3.75205L819.373 3.75205L876.145 76.0495V3.75205L906.726 3.75205V122H876.145L819.373 49.7025V122L788.635 122Z" fill="#E9E9DB"/>
</svg>
