<svg width="239" height="99" viewBox="0 0 239 99" fill="none" xmlns="http://www.w3.org/2000/svg">
<path d="M236.723 81.2634C234.425 86.3198 229.002 90.3177 221.061 93.191C213.123 96.063 202.721 97.7909 190.563 98.3309C166.25 99.4106 134.989 95.7369 102.551 87.045C70.1121 78.3532 42.6621 66.2954 24.5035 53.8355C15.423 47.6047 8.67958 41.2825 4.79282 35.2422C0.904214 29.1991 -0.101253 23.4788 2.19705 18.4223C4.49535 13.3659 9.91803 9.36799 17.8595 6.49467C25.7971 3.62271 36.1995 1.89479 48.3576 1.35484C72.6703 0.275086 103.931 3.94882 136.37 12.6407C168.808 21.3325 196.258 33.3903 214.417 45.8502C223.497 52.0811 230.241 58.4032 234.127 64.4435C238.016 70.4866 239.021 76.207 236.723 81.2634Z" stroke="#E9E9DB" stroke-width="0.6"/>
</svg>
