<svg width="599" height="118" viewBox="0 0 599 118" fill="none" xmlns="http://www.w3.org/2000/svg">
<path d="M59.0878 52.4147H115.857C115.857 58.2522 115.614 63.5545 115.127 68.3218C114.641 73.0891 113.668 77.5158 112.209 81.602C110.166 87.3422 107.393 92.45 103.89 96.9254C100.388 101.304 96.253 105.001 91.4857 108.017C86.8157 110.935 81.6593 113.173 76.0164 114.73C70.3735 116.286 64.4388 117.065 58.2122 117.065C49.6505 117.065 41.8186 115.654 34.7163 112.833C27.7114 110.011 21.6793 106.071 16.6202 101.012C11.5611 95.8552 7.62076 89.7259 4.79932 82.6236C1.97787 75.4241 0.567152 67.4948 0.567152 58.8359C0.567152 50.2743 1.92923 42.4424 4.65338 35.3401C7.47482 28.1406 11.4151 22.0112 16.4743 16.9521C21.6307 11.8929 27.8087 7.95266 35.0082 5.13121C42.2078 2.30977 50.2343 0.899047 59.0878 0.899047C70.5681 0.899047 80.6378 3.37997 89.2967 8.34182C97.9556 13.3037 104.815 20.9897 109.874 31.3998L82.7295 42.6369C80.2 36.6049 76.8921 32.2754 72.8058 29.6486C68.8169 27.0217 64.2442 25.7083 59.0878 25.7083C54.807 25.7083 50.9153 26.5353 47.4128 28.1892C43.9104 29.7459 40.8943 32.0322 38.3648 35.0482C35.9325 37.967 33.9867 41.5181 32.5273 45.7016C31.1652 49.8851 30.4842 54.5551 30.4842 59.7115C30.4842 64.3815 31.0679 68.711 32.2354 72.6999C33.5002 76.6888 35.3487 80.1427 37.781 83.0614C40.2133 85.9802 43.2293 88.2665 46.8291 89.9204C50.4289 91.4771 54.6124 92.2554 59.3796 92.2554C62.2011 92.2554 64.9252 91.9636 67.5521 91.3798C70.179 90.6988 72.514 89.6772 74.5571 88.3151C76.6975 86.8558 78.4487 85.0072 79.8108 82.7695C81.1729 80.5318 82.0971 77.8077 82.5836 74.5971H59.0878V52.4147ZM158.891 58.9819C158.891 63.36 159.718 67.3975 161.372 71.0946C163.026 74.7917 165.264 78.0023 168.085 80.7264C170.907 83.4506 174.166 85.591 177.863 87.1476C181.658 88.607 185.646 89.3367 189.83 89.3367C194.013 89.3367 197.954 88.607 201.651 87.1476C205.445 85.591 208.753 83.4506 211.575 80.7264C214.493 78.0023 216.78 74.7917 218.434 71.0946C220.088 67.3975 220.914 63.36 220.914 58.9819C220.914 54.6038 220.088 50.5662 218.434 46.8691C216.78 43.172 214.493 39.9614 211.575 37.2373C208.753 34.5131 205.445 32.4214 201.651 30.962C197.954 29.4054 194.013 28.627 189.83 28.627C185.646 28.627 181.658 29.4054 177.863 30.962C174.166 32.4214 170.907 34.5131 168.085 37.2373C165.264 39.9614 163.026 43.172 161.372 46.8691C159.718 50.5662 158.891 54.6038 158.891 58.9819ZM128.974 58.9819C128.974 50.8094 130.482 43.2207 133.498 36.2157C136.514 29.1135 140.698 22.9355 146.049 17.6818C151.4 12.428 157.773 8.34182 165.167 5.42309C172.658 2.40706 180.879 0.899047 189.83 0.899047C198.683 0.899047 206.856 2.40706 214.347 5.42309C221.839 8.34182 228.26 12.428 233.611 17.6818C239.059 22.9355 243.291 29.1135 246.307 36.2157C249.323 43.2207 250.832 50.8094 250.832 58.9819C250.832 67.1543 249.323 74.7917 246.307 81.8939C243.291 88.8989 239.059 95.0282 233.611 100.282C228.26 105.536 221.839 109.671 214.347 112.687C206.856 115.605 198.683 117.065 189.83 117.065C180.879 117.065 172.658 115.605 165.167 112.687C157.773 109.671 151.4 105.536 146.049 100.282C140.698 95.0282 136.514 88.8989 133.498 81.8939C130.482 74.7917 128.974 67.1543 128.974 58.9819ZM309.497 28.1892V114H280.893V28.1892H257.398V3.96372L332.993 3.96372V28.1892H309.497ZM374.319 46.4313L415.619 46.4313V3.96372H444.223V114L415.619 114V68.6137L374.319 68.6137V114H345.715V3.96372L374.319 3.96372V46.4313ZM495.885 3.96372V114H467.282V3.96372H495.885ZM598.116 40.7398C591.501 32.6646 583.328 28.627 573.599 28.627C569.318 28.627 565.329 29.4054 561.632 30.962C558.032 32.5187 554.919 34.6591 552.292 37.3832C549.665 40.0101 547.574 43.172 546.017 46.8691C544.558 50.5662 543.828 54.5551 543.828 58.8359C543.828 63.214 544.558 67.2516 546.017 70.9487C547.574 74.6457 549.665 77.8563 552.292 80.5805C555.016 83.3046 558.178 85.4451 561.778 87.0017C565.378 88.5584 569.27 89.3367 573.453 89.3367C582.598 89.3367 590.82 85.445 598.116 77.6618V111.519L595.198 112.541C590.82 114.097 586.733 115.216 582.939 115.897C579.145 116.676 575.399 117.065 571.702 117.065C564.113 117.065 556.816 115.654 549.811 112.833C542.904 109.914 536.774 105.876 531.423 100.72C526.17 95.466 521.937 89.288 518.727 82.1858C515.516 74.9863 513.911 67.1543 513.911 58.69C513.911 50.2257 515.468 42.491 518.581 35.486C521.791 28.3838 526.024 22.3031 531.277 17.244C536.628 12.0875 542.806 8.09859 549.811 5.27714C556.816 2.35841 564.162 0.899047 571.848 0.899047C576.226 0.899047 580.507 1.3855 584.69 2.35841C588.971 3.23403 593.446 4.64475 598.116 6.59058V40.7398Z" fill="#E9E9DB"/>
</svg>
