<svg width="257" height="96" viewBox="0 0 257 96" fill="none" xmlns="http://www.w3.org/2000/svg">
<path d="M15.7776 17.2467V67.2596H32.9141V75.5259H6.98293V17.2467H15.7776Z" fill="#E9E9DB"/>
<path d="M75.6925 62.6462H52.0965L45.9566 76.0327H36.9965L64.2693 17.4533L90.5783 76.0327H81.4754L75.6925 62.6462ZM72.3012 54.8285L64.1265 36.0874L55.5591 54.8285H72.3012Z" fill="#E9E9DB"/>
<path d="M240.876 62.6379H217.28L211.14 76.0244H202.18L229.453 17.445L255.762 76.0244H246.659L240.876 62.6379ZM237.485 54.8202L229.31 36.0791L220.743 54.8202H237.485Z" fill="#E9E9DB"/>
<path d="M159.54 76.0308V17.4612H171.831C177.723 17.4612 182.376 18.0428 185.79 19.2061C189.457 20.3441 192.783 22.2788 195.767 25.01C201.811 30.523 204.833 37.7683 204.833 46.746C204.833 55.7489 201.684 63.0322 195.388 68.5958C192.226 71.3776 188.913 73.3122 185.449 74.3996C182.212 75.487 177.622 76.0308 171.679 76.0308H159.54ZM168.379 67.7233H172.362C176.332 67.7233 179.632 67.306 182.262 66.4715C184.893 65.5864 187.27 64.1828 189.394 62.2608C193.744 58.2904 195.919 53.1188 195.919 46.746C195.919 40.3225 193.769 35.113 189.47 31.1173C185.601 27.5515 179.898 25.7686 172.362 25.7686H168.379V67.7233Z" fill="#E9E9DB"/>
<path d="M94.3265 76L105.833 17.2281L124.598 59.7138L144.035 17.2281L154.373 76H145.911L140.636 43.0028L124.456 78.5137L108.736 42.9674L102.859 76H94.3265Z" fill="#E9E9DB"/>
</svg>
