<svg width="1440" height="238" viewBox="0 0 1440 238" fill="none" xmlns="http://www.w3.org/2000/svg">
<path opacity="0.05" d="M130.286 -38.6381H105.17V-37.8365H109.445C122.538 -37.8365 130.286 -36.5006 130.286 -23.6753L130.286 141.717L-0.905298 -38.6381L-20.1432 -38.6381H-21.4791H-24.1511H-46.3281V-37.8365H-42.3202C-28.9605 -37.8365 -21.4791 -36.5006 -21.4791 -23.6753L-21.4791 163.36C-21.4791 176.452 -28.9605 177.788 -42.3202 177.788H-46.3281V178.322H-21.4791H-20.1432H4.70575V177.788H0.697858C-12.6618 177.788 -20.1432 176.185 -20.1432 163.36L-20.1432 -27.9504L130.286 178.59H131.355L131.355 -23.6753C131.355 -36.5006 139.104 -37.8365 152.196 -37.8365H156.471V-38.6381H131.355H130.286ZM170.979 99.2334C170.979 55.4138 191.82 20.9459 222.547 20.9459C247.931 20.9459 265.298 44.1917 270.642 76.522C255.145 80.5299 233.235 86.4081 217.203 90.6832C198.233 95.7599 184.873 105.112 179.796 117.67C177.124 123.548 176.857 129.961 178.46 136.64C173.651 125.685 170.979 113.127 170.979 99.2334ZM227.891 174.047C209.455 174.047 192.889 163.092 182.468 144.923C177.926 135.304 177.124 125.953 180.865 117.937C185.675 105.913 198.767 96.5614 217.471 91.752C233.502 87.4769 255.412 81.8658 271.176 77.5907L290.949 72.5141C282.398 41.7869 258.885 19.8771 222.547 19.8771C176.59 19.8771 150.94 55.4138 150.94 99.2334C150.94 143.053 176.59 178.59 222.547 178.59C259.954 178.59 283.734 155.077 291.75 123.014L290.414 122.479C281.33 160.153 255.679 174.047 227.891 174.047ZM525.312 19.8771H523.976H497.257V20.4115H502.868C515.693 20.4115 522.64 22.0147 517.564 34.3055L465.728 152.138L414.694 34.8399C408.816 22.0147 416.03 20.6787 429.39 20.6787H434.734V19.8771H408.014H386.105H362.859V20.4115H365.531C378.89 20.4115 387.173 22.0147 392.784 34.8399L407.48 68.5062L370.607 152.405L319.306 35.1071C313.695 22.2818 320.91 20.9459 334.002 20.9459H339.613V19.8771H312.894H290.984H267.738V20.4115H270.41C283.77 20.4115 292.053 22.0147 297.664 34.8399L360.454 178.59L408.014 69.8422L455.575 178.59L518.632 34.8399C524.243 21.7475 532.526 20.4115 545.886 20.4115H548.558V19.8771L525.312 19.8771ZM657.545 65.0327C657.545 40.1838 670.371 20.9459 695.754 20.9459C721.137 20.9459 734.23 40.1838 734.23 65.0327C734.23 90.1488 721.137 109.12 695.754 109.12C670.371 109.12 657.545 90.1488 657.545 65.0327ZM709.381 131.029H689.074C670.371 131.029 644.186 131.297 644.186 123.014C644.186 115.799 657.545 111.791 669.569 106.448C677.05 109.12 685.868 110.455 695.754 110.455C733.428 110.455 754.536 90.416 754.536 65.2999C754.536 48.7339 745.452 34.3055 728.351 26.5569C735.833 18.0068 750.528 12.9301 767.896 10.5254C764.422 4.11274 755.605 0.906421 747.322 5.4487C740.642 8.92221 731.291 21.4803 727.817 26.2897C719 22.2818 708.312 20.1443 695.754 20.1443C658.08 20.1443 636.972 40.451 636.972 65.5671C636.972 83.2018 647.659 98.9662 667.699 106.18C654.873 111.791 636.972 115.265 636.972 130.495C636.972 147.862 664.76 150.267 691.746 150.267H714.19C743.849 150.267 778.851 148.13 778.851 174.849C778.851 210.386 728.351 225.616 695.754 225.616C663.424 225.616 630.024 213.859 630.024 184.201C630.024 173.246 634.834 164.696 640.445 158.55C629.49 155.344 609.985 163.627 609.985 187.674C609.985 210.92 632.162 237.372 690.944 237.372C745.185 237.372 780.187 204.507 780.187 174.849C780.187 147.328 759.88 131.029 709.381 131.029ZM872.696 62.3608V153.741C859.871 164.696 843.572 176.452 827.541 176.452C808.57 176.452 794.943 163.36 794.943 143.587C794.943 120.609 812.311 101.638 836.091 91.752H836.358C849.985 85.6065 868.154 78.3923 872.696 62.3608ZM901.82 173.513C895.942 173.513 893.003 169.772 893.003 160.153V58.3529C893.003 42.3213 879.376 19.8771 843.038 19.8771C814.715 19.8771 799.752 28.9617 793.874 37.779C788.263 46.062 788.798 61.292 798.684 66.3687C805.898 42.8557 822.464 21.4803 843.038 21.4803C862.543 21.4803 872.429 34.8399 872.696 55.9481C871.627 74.9188 851.855 83.7362 837.427 89.8816C802.959 105.112 774.904 113.929 774.904 145.191C774.904 170.841 801.623 178.59 823.8 178.59C844.641 178.59 862.543 164.161 872.696 155.344C872.696 174.047 883.918 178.59 894.606 178.59C905.561 178.59 915.18 170.039 915.18 157.214H914.111C914.378 165.23 908.767 173.513 901.82 173.513ZM946.761 163.627V-38.6381L907.483 -19.133V-18.5987C924.049 -27.416 926.721 -23.6753 926.721 -13.2548V163.36C926.721 176.452 919.24 177.788 905.88 177.788H901.872V178.322L971.877 178.322V177.788H967.602C954.509 177.788 946.761 176.452 946.761 163.627ZM1004.77 163.627V-38.6381L965.493 -19.133V-18.5987C982.059 -27.416 984.731 -23.6753 984.731 -13.2548V163.36C984.731 176.452 977.25 177.788 963.89 177.788H959.882V178.322H1029.89V177.788H1025.61C1012.52 177.788 1004.77 176.452 1004.77 163.627ZM1284.82 19.8771C1265.85 19.8771 1251.95 32.9696 1235.92 53.8106V19.8771L1196.38 39.115V39.9166C1212.94 31.0992 1215.88 34.8399 1215.88 45.2604V81.0643C1191.03 116.868 1156.83 174.047 1102.59 174.047C1084.16 174.047 1067.59 163.092 1057.17 144.923C1052.63 135.304 1052.09 125.953 1055.57 117.937C1060.64 105.913 1073.47 96.5614 1092.17 91.752C1108.2 87.4769 1130.11 81.8658 1145.88 77.5907L1165.65 72.5141C1157.1 41.7869 1133.59 19.8771 1097.52 19.8771C1051.29 19.8771 1025.91 55.4138 1025.91 99.2334C1025.91 143.053 1051.29 178.59 1097.52 178.59C1162.98 178.59 1202.52 99.7678 1222.56 73.5829C1235.65 55.6809 1248.21 34.8399 1269.05 33.5039H1271.19C1291.23 32.4352 1299.25 43.6573 1305.12 55.4138C1322.49 38.3134 1304.06 19.8771 1284.82 19.8771ZM1045.95 99.2334C1045.95 55.4138 1066.79 20.9459 1097.52 20.9459C1122.63 20.9459 1140 44.1917 1145.61 76.522C1130.11 80.5299 1107.94 86.4081 1091.9 90.6832C1072.93 95.7599 1059.57 105.112 1054.5 117.67C1052.09 123.548 1051.56 129.961 1053.16 136.64C1048.35 125.685 1045.95 113.127 1045.95 99.2334ZM1235.92 163.627V66.3687C1231.11 72.2469 1220.42 88.5457 1215.88 97.363V163.36C1215.88 176.452 1208.13 177.788 1195.04 177.788H1190.77V178.322H1261.04V177.788H1256.76C1243.67 177.788 1235.92 176.452 1235.92 163.627ZM1463.8 19.8771H1462.46H1435.74V20.4115H1441.09C1453.91 20.4115 1461.13 22.0147 1456.05 34.3055L1404.22 152.138L1352.11 32.4352L1352.91 34.8399C1347.3 21.7475 1354.52 20.4115 1367.61 20.4115H1373.22V19.8771H1346.5H1324.59L1301.35 19.8771V20.4115H1304.02C1317.38 20.4115 1325.66 22.0147 1331.27 34.8399L1393.53 177.254L1384.44 197.828C1376.96 215.195 1366.81 234.433 1348.37 234.433C1329.94 234.433 1324.06 207.446 1321.65 190.613C1314.71 194.087 1306.42 201.301 1308.03 214.126C1309.63 228.555 1323.52 236.838 1343.56 236.838C1364.4 236.838 1375.36 220.806 1384.18 201.301L1394.06 178.59L1457.12 34.8399C1463 21.7475 1471.28 20.4115 1484.37 20.4115H1487.31V19.8771H1463.8Z" fill="#DCDCCF"/>
</svg>
