<svg width="1063" height="178" viewBox="0 0 1063 178" fill="none" xmlns="http://www.w3.org/2000/svg">
<g filter="url(#filter0_d_313_2)">
<path d="M5.66852 33.8012L4.33426 52.214H4.73454C5.66852 41.1397 7.53648 34.4684 18.344 34.4684L42.2272 34.4684L42.2272 134.805C42.2272 141.209 38.3579 141.876 31.82 141.876H29.6852V142.277H65.4434V141.876H63.442C56.7707 141.876 53.0348 141.209 53.0348 134.805L53.0348 34.4684L76.918 34.4684C87.7255 34.4684 89.46 41.1397 90.5275 52.214H90.9277L89.46 33.8012L5.66852 33.8012ZM165.105 33.8012L152.697 33.8012V34.2015H154.698C161.369 34.2015 165.105 34.8687 165.105 41.2731V79.5664L130.815 79.5664C117.072 79.5664 109.6 83.836 107.599 92.6421L107.599 41.2731C107.599 34.8687 111.335 34.2015 118.006 34.2015H120.007V33.8012L107.599 33.8012H96.6577H84.2491V34.2015H86.2505C92.9218 34.2015 96.6577 34.8687 96.6577 41.2731L96.6577 134.671C96.6577 141.209 92.9218 141.876 86.2505 141.876H84.2491V142.143L96.6577 142.143H107.599H120.007V141.876H118.006C111.335 141.876 107.599 141.076 107.599 134.671L107.599 98.246C107.599 85.9708 114.937 80.2335 130.815 80.2335L165.105 80.2335L165.105 134.671C165.105 141.209 161.369 141.876 154.698 141.876H152.697V142.143H165.105H176.046H188.455V141.876H186.453C179.782 141.876 176.046 141.076 176.046 134.671L176.046 41.2731C176.046 34.8687 179.782 34.2015 186.453 34.2015H188.455V33.8012H176.046H165.105ZM252.203 141.609H204.97V98.246C204.97 85.9708 212.442 80.2335 228.187 80.2335H238.194C244.598 80.2335 245.265 83.9694 245.265 90.6407V91.041H245.665L245.665 80.2335V79.5664V68.7589H245.265V69.1591C245.265 75.8304 244.598 79.5664 238.194 79.5664H237.793H228.187C214.577 79.5664 207.105 83.836 204.97 92.6421L204.97 34.4684L249.802 34.4684C260.476 34.4684 262.344 41.1397 263.278 52.214H263.811L262.344 33.8012L205.104 33.8012H202.569L194.163 33.8012H181.754V34.2015H183.756C190.427 34.2015 194.163 34.8687 194.163 41.2731L194.163 134.671C194.163 141.209 190.427 141.876 183.756 141.876H181.754V142.143H194.163H202.569H205.104H264.879L266.213 123.864H265.813C264.879 134.938 263.011 141.609 252.203 141.609ZM410.437 141.876C403.899 141.876 399.763 141.209 397.095 134.805L354.398 33.8012L315.972 124.531V124.664L311.702 134.671C309.033 141.209 304.897 141.876 298.359 141.876H296.892V142.143H308.5H309.167H322.643V141.876H319.707C313.17 141.876 309.7 141.076 312.369 134.671L316.639 124.664C322.109 111.855 333.45 105.584 351.329 105.584H372.01L384.419 134.671C387.088 141.209 383.619 141.876 376.947 141.876H374.012V142.143H387.621H400.297H411.905V141.876H410.437ZM351.329 105.051C335.852 105.051 325.178 109.587 318.907 119.194L348.394 49.6789L371.744 105.051H351.329ZM461.251 127.066C467.121 127.066 470.724 132.67 474.059 138.674C470.057 140.675 465.787 141.743 461.251 141.743C454.98 141.743 451.644 137.874 451.644 134.004C451.644 129.067 456.18 127.066 461.251 127.066ZM451.11 134.004C451.11 136.94 452.845 139.875 456.18 141.209C437.634 137.874 424.025 115.591 424.025 87.9722C424.025 58.0848 440.303 34.3349 461.251 34.3349C482.332 34.3349 498.476 58.0848 498.476 87.9722C498.476 108.787 490.738 126.666 478.863 135.605C473.659 130.268 468.322 126.132 461.251 126.132C455.913 126.132 451.11 128.801 451.11 134.004ZM483.132 140.142C482.599 139.475 482.065 138.941 481.398 138.274C499.811 130.135 509.417 110.655 509.417 87.9722C509.417 58.0848 492.739 33.8012 461.251 33.8012C429.762 33.8012 413.084 58.0848 413.084 87.9722C413.084 117.726 429.629 141.876 460.583 142.277H461.251C466.321 142.277 470.857 141.609 475.127 140.542C477.128 144.278 479.13 148.281 481.531 150.816C488.736 158.688 498.743 160.022 509.684 156.42L509.417 156.019C497.809 156.019 490.337 147.88 483.132 140.142ZM661.909 141.876C655.371 141.876 651.235 141.209 648.566 134.805L605.87 33.8012L567.443 124.531V124.664L563.173 134.671C560.505 141.209 556.369 141.876 549.831 141.876H548.363V142.143H559.971H560.638H574.114V141.876H571.179C564.641 141.876 561.172 141.076 563.841 134.671L568.11 124.664C573.581 111.855 584.922 105.584 602.801 105.584H623.482L635.891 134.671C638.559 141.209 635.09 141.876 628.419 141.876H625.483V142.143H639.093H651.768H663.376V141.876H661.909ZM602.801 105.051C587.324 105.051 576.649 109.587 570.378 119.194L599.866 49.6789L623.215 105.051H602.801ZM680.166 107.052V34.4684L706.718 34.4684C722.062 34.4684 730.067 43.9416 730.067 59.5525C730.067 73.2953 725.264 83.3023 709.386 88.1056C697.912 91.8416 683.235 97.1786 680.166 107.052ZM740.742 134.805C738.206 129.735 731.402 116.792 724.73 102.916C719.527 91.975 713.789 88.6393 706.851 89.4399C707.919 89.173 708.853 88.7728 709.92 88.5059C733.27 81.3009 740.742 73.1619 740.742 59.5525C740.742 43.9416 729.534 33.8012 706.584 33.8012L656.683 33.8012V34.0681H658.685C665.356 34.0681 669.092 34.8687 669.092 41.1397V134.671C669.092 141.076 665.356 141.743 658.685 141.743H656.683V142.01H692.441V141.743H690.44C683.769 141.743 680.033 140.942 680.033 134.671V110.655C680.033 105.584 682.434 98.3794 701.781 91.1744C703.382 90.6407 707.518 90.5073 710.854 97.1786C715.657 106.785 725.398 126.666 729.4 134.671C733.403 142.944 740.875 142.143 747.546 142.143H753.55V141.876H750.215C747.68 141.876 743.143 139.875 740.742 134.805ZM745.62 33.8012L744.286 52.214H744.686C745.62 41.1397 747.488 34.4684 758.295 34.4684L782.179 34.4684V134.805C782.179 141.209 778.309 141.876 771.771 141.876H769.637V142.277L805.395 142.277V141.876H803.393C796.722 141.876 792.986 141.209 792.986 134.805V34.4684H816.869C827.677 34.4684 829.411 41.1397 830.479 52.214H830.879L829.411 33.8012L745.62 33.8012Z" fill="#D2564F"/>
</g>
<path d="M848.743 33.8012H836.334V34.2015H838.336C845.007 34.2015 848.743 34.8687 848.743 41.2731V134.671C848.743 141.209 845.007 141.876 838.336 141.876H836.334V142.143H848.743H859.684H872.092V141.876H870.091C863.42 141.876 859.684 141.076 859.684 134.671V41.2731C859.684 34.8687 863.42 34.2015 870.091 34.2015H872.092V33.8012H859.684L848.743 33.8012ZM922.806 76.631C904.26 68.2252 896.387 63.2884 896.387 53.6817C896.387 44.075 906.394 34.7352 922.806 34.7352C939.217 34.7352 945.888 46.2099 948.957 56.8839C956.563 50.2126 952.56 41.4065 944.554 37.9375C938.15 35.2689 932.279 33.9347 922.806 33.9347C907.328 33.9347 889.449 42.0737 889.449 58.2182C889.449 74.2293 906.394 81.5678 921.605 88.1056C936.949 94.6435 954.294 102.916 954.294 118.126C954.294 133.337 938.95 141.609 923.873 141.609C906.128 141.609 892.385 123.73 887.314 106.518C879.976 113.323 882.111 125.198 888.782 131.202C896.254 138.274 910.531 142.277 923.873 142.277C942.553 142.277 963.901 134.004 963.901 113.457C963.901 92.909 942.553 85.704 922.806 76.631ZM975.916 33.8012L974.581 52.214H974.982C975.916 41.1397 977.784 34.4684 988.591 34.4684L1012.47 34.4684V134.805C1012.47 141.209 1008.6 141.876 1002.07 141.876H999.932V142.277H1035.69V141.876H1033.69C1027.02 141.876 1023.28 141.209 1023.28 134.805V34.4684L1047.17 34.4684C1057.97 34.4684 1059.71 41.1397 1060.77 52.214H1061.17L1059.71 33.8012L975.916 33.8012Z" fill="black"/>
<defs>
<filter id="filter0_d_313_2" x="0.334473" y="33.8013" width="834.544" height="134.221" filterUnits="userSpaceOnUse" color-interpolation-filters="sRGB">
<feFlood flood-opacity="0" result="BackgroundImageFix"/>
<feColorMatrix in="SourceAlpha" type="matrix" values="0 0 0 0 0 0 0 0 0 0 0 0 0 0 0 0 0 0 127 0" result="hardAlpha"/>
<feOffset dy="4"/>
<feGaussianBlur stdDeviation="2"/>
<feComposite in2="hardAlpha" operator="out"/>
<feColorMatrix type="matrix" values="0 0 0 0 0 0 0 0 0 0 0 0 0 0 0 0 0 0 0.25 0"/>
<feBlend mode="normal" in2="BackgroundImageFix" result="effect1_dropShadow_313_2"/>
<feBlend mode="normal" in="SourceGraphic" in2="effect1_dropShadow_313_2" result="shape"/>
</filter>
</defs>
</svg>
